<?xml version="1.0" encoding="utf-8"?>
<!-- Generator: Adobe Illustrator 28.2.0, SVG Export Plug-In . SVG Version: 6.00 Build 0)  -->
<svg version="1.1" id="Layer_1" xmlns="http://www.w3.org/2000/svg" xmlns:xlink="http://www.w3.org/1999/xlink" x="0px" y="0px"
	 viewBox="0 0 2848 1720" style="enable-background:new 0 0 2848 1720;" xml:space="preserve">
<style type="text/css">
	.st0{fill:#FFFFFF;}
	.st1{fill:url(#SVGID_1_);}
	.st2{fill:url(#SVGID_00000016761136025990653840000017013267503927956370_);}
	.st3{fill:url(#SVGID_00000013164300530042218990000011043847727279385753_);}
	.st4{fill:url(#SVGID_00000152959821256168469560000003182632734599514015_);}
	.st5{fill:url(#SVGID_00000137830415017469959290000008829494853888678063_);}
	.st6{fill:url(#SVGID_00000159430069625937087160000017811872012945071501_);}
	.st7{fill:url(#SVGID_00000025402175101501380960000003089122424411091598_);}
	.st8{fill:url(#SVGID_00000026144971177062244270000006085877338106380173_);}
	.st9{fill:url(#SVGID_00000130612276854909904090000008580684482216850088_);}
	.st10{fill:url(#SVGID_00000029768194708290020120000004102581456059111319_);}
	.st11{fill:url(#SVGID_00000098936743152606280350000018367414197644144003_);}
	.st12{fill:url(#SVGID_00000120543468861429325180000007182687316885896590_);}
	.st13{fill:url(#SVGID_00000045580070260935442070000001834062536783801221_);}
	.st14{fill:url(#SVGID_00000142887691561336138210000013624613662332155832_);}
	.st15{fill:url(#SVGID_00000047740584078837842390000011385736604002821790_);}
	.st16{fill:url(#SVGID_00000021814353810496783900000017244766671060725406_);}
	.st17{fill:url(#SVGID_00000157991225548927147790000017323579316230498979_);}
	.st18{fill:url(#SVGID_00000116237474124968340010000001961234707418143127_);}
	.st19{fill:url(#SVGID_00000173153559471401883780000008553392529114268815_);}
	.st20{fill:url(#SVGID_00000019642685325250305980000013047358946394574236_);}
	.st21{fill:url(#SVGID_00000096045710974337648740000003490736044795575462_);}
	.st22{fill:url(#SVGID_00000171709655665343508900000006617250730658691983_);}
	.st23{fill:url(#SVGID_00000010301385578450424870000008659783463596859284_);}
	.st24{fill:url(#SVGID_00000022533750637120333790000011523779639222213790_);}
	.st25{fill:url(#SVGID_00000107588117260754284200000016308404112634148274_);}
	.st26{fill:url(#SVGID_00000101071352468393890430000003056371524662420909_);}
	.st27{fill:url(#SVGID_00000065793220593187421850000014824149526931004040_);}
	.st28{fill:url(#SVGID_00000129205504065979069410000012077806989441756568_);}
	.st29{fill:url(#SVGID_00000015339273481898272610000010139323802991129484_);}
	.st30{fill:url(#SVGID_00000003815322287672460280000002903797594432751748_);}
	.st31{fill:url(#SVGID_00000156546504021861936540000008769907312017252270_);}
	.st32{fill:url(#SVGID_00000078732752573606325860000003014312785043020932_);}
	.st33{fill:url(#SVGID_00000142889179560800465540000006130166605396331418_);}
	.st34{fill:url(#SVGID_00000082356048952173693790000011392002140310043838_);}
	.st35{fill:url(#SVGID_00000015340253021639807640000002414525635146788266_);}
	.st36{fill:#BB824D;}
	.st37{fill:#DCC0A1;}
	.st38{fill:url(#SVGID_00000061460443938510847100000004411207200279583912_);}
	.st39{fill:url(#SVGID_00000042002681587061285620000003925131403403025309_);}
	.st40{fill:url(#SVGID_00000176734257024067336020000006609329966074021560_);}
	.st41{fill:url(#SVGID_00000047778252924778481750000014459336819888797332_);}
	.st42{fill:url(#SVGID_00000052821486878990286840000015144209032654554809_);}
	.st43{fill:url(#SVGID_00000068650263509988218850000009347463785145549469_);}
	.st44{fill:url(#SVGID_00000161594046832738443850000010670652793959386018_);}
	.st45{fill:url(#SVGID_00000129200109085069157960000005540760373181014928_);}
	.st46{fill:url(#SVGID_00000111190885279013318260000011467341703936287364_);}
	.st47{fill:url(#SVGID_00000158747086272625034760000010685732237574277818_);}
	.st48{fill:url(#SVGID_00000111886561348369249310000017914740896025831562_);}
	.st49{fill:url(#SVGID_00000007401387211253643230000008434115816500446875_);}
	.st50{fill:url(#SVGID_00000016040715996717558230000006703252924689770423_);}
	.st51{fill:url(#SVGID_00000057840222992199859750000008592885228625510532_);}
	.st52{fill:url(#SVGID_00000078010830015407021980000006340535267074988449_);}
	.st53{fill:url(#SVGID_00000151527533855088548260000016903330231034782139_);}
	.st54{fill:url(#SVGID_00000003799319649015295100000016861138292013482680_);}
	.st55{fill:url(#SVGID_00000121992816333628327940000017163869172668995714_);}
	.st56{fill:url(#SVGID_00000139998349386164056470000017959505121439531162_);}
	.st57{fill:url(#SVGID_00000160168541833429712470000014025834373686448551_);}
	.st58{fill:url(#SVGID_00000056392504183231943340000012450239496920844206_);}
	.st59{fill:url(#SVGID_00000005225058164802337560000007282195282917939630_);}
	.st60{fill:url(#SVGID_00000003796613814036932140000010249261578444874662_);}
	.st61{fill:url(#SVGID_00000134961691549215026280000003941412420100064941_);}
	.st62{fill:url(#SVGID_00000113317462297829609110000013575777278391155603_);}
	.st63{fill:url(#SVGID_00000072994413916016712280000015542141850275146659_);}
	.st64{fill:url(#SVGID_00000076594312077183155010000001715994635301525910_);}
	.st65{fill:url(#SVGID_00000016785990224225817360000012511137885926891179_);}
	.st66{fill:url(#SVGID_00000037694033517777887380000015958255980194689700_);}
	.st67{fill:url(#SVGID_00000084511059745595855570000013526710332302203269_);}
	.st68{fill:url(#SVGID_00000039846615050432605450000004405268316926261413_);}
	.st69{fill:url(#SVGID_00000120541617666116739920000010643536824376370834_);}
	.st70{fill:url(#SVGID_00000093150010406744764580000002125048203111648441_);}
	.st71{fill:url(#SVGID_00000049928570751461075070000002787722141345351573_);}
	.st72{fill:url(#SVGID_00000142135186083198150620000012996069129084289169_);}
	.st73{fill:url(#SVGID_00000175300521134076095120000007512715534465102772_);}
	.st74{fill:url(#SVGID_00000086676486679281922260000001008854007713298304_);}
	.st75{fill:url(#SVGID_00000174582358656262042280000000499010921658229122_);}
	.st76{fill:url(#SVGID_00000133519579057861185380000010249803951425777305_);}
	.st77{fill:url(#SVGID_00000062188853546925838060000015691295403571796913_);}
	.st78{fill:url(#SVGID_00000150819795336806048340000002020572189562014593_);}
	.st79{fill:url(#SVGID_00000026859500902192786390000013031599279172390025_);}
	.st80{fill:url(#SVGID_00000124121821741909975140000003231663019928023967_);}
	.st81{fill:url(#SVGID_00000169548740948044758990000016171648784324464038_);}
	.st82{fill:url(#SVGID_00000044137929738479528320000005695299430417182347_);}
	.st83{fill:url(#SVGID_00000134966523797348944980000004296337469289006481_);}
	.st84{fill:url(#SVGID_00000067945788674422849470000014657968156344942466_);}
	.st85{fill:url(#SVGID_00000066511470970263591030000008751687624485674115_);}
	.st86{fill:url(#SVGID_00000141428575263166754880000000297009772781027002_);}
	.st87{fill:url(#SVGID_00000183232406547547851970000004441364587277152644_);}
	.st88{fill:url(#SVGID_00000114774979299715194770000013311041983513457843_);}
	.st89{fill:url(#SVGID_00000116199695561938858960000007057540931637984188_);}
	.st90{fill:url(#SVGID_00000145037681636376579470000008506649868027360432_);}
	.st91{fill:url(#SVGID_00000029027861536059128710000001806322978237831079_);}
	.st92{fill:url(#SVGID_00000153684435848030607090000011394919703135782576_);}
	.st93{fill:url(#SVGID_00000097467011867811491510000009187644308184816302_);}
	.st94{fill:url(#SVGID_00000144309702366175026820000005317550386010538684_);}
	.st95{fill:url(#SVGID_00000016753423004668138030000009533636289440233872_);}
	.st96{fill:url(#SVGID_00000037663121737311826130000012816759398879342493_);}
	.st97{fill:url(#SVGID_00000065789189918088779260000015500105655665378990_);}
	.st98{fill:url(#SVGID_00000088841979064924867460000001411384956658538669_);}
	.st99{fill:url(#SVGID_00000124158605473485961280000003843094746715819651_);}
	.st100{fill:url(#SVGID_00000135667351084713268880000012329542922817104565_);}
	.st101{fill:url(#SVGID_00000119829356139598024860000010811943379233968298_);}
	.st102{fill:url(#SVGID_00000122716189690829347710000010639892796511792045_);}
	.st103{fill:url(#SVGID_00000147933828958880468010000014904887939882531968_);}
	.st104{fill:url(#SVGID_00000075881495030216908590000007730056361519176580_);}
	.st105{fill:url(#SVGID_00000108287276349391449900000002659572146081226892_);}
</style>
<g>
	<g>
		<g>
			<path class="st36" d="M1188.07,921.55c1.18-2,2.77-3.57,4.79-4.7c2.02-1.13,4.23-1.69,6.63-1.69c2.75,0,5.19,0.67,7.33,2.02
				c2.14,1.35,3.69,3.26,4.66,5.74h-5.09c-0.67-1.36-1.6-2.38-2.78-3.04c-1.19-0.67-2.56-1-4.12-1c-1.71,0-3.23,0.38-4.57,1.15
				c-1.34,0.77-2.38,1.87-3.14,3.3c-0.76,1.44-1.13,3.11-1.13,5.01c0,1.91,0.38,3.58,1.13,5.01c0.75,1.44,1.8,2.54,3.14,3.32
				c1.34,0.78,2.86,1.17,4.57,1.17c1.56,0,2.93-0.33,4.12-1c1.19-0.67,2.12-1.68,2.78-3.04h5.09c-0.97,2.48-2.52,4.38-4.66,5.72
				c-2.14,1.34-4.58,2-7.33,2c-2.43,0-4.64-0.56-6.65-1.69c-2-1.13-3.6-2.69-4.77-4.7c-1.18-2-1.76-4.27-1.76-6.79
				S1186.9,923.55,1188.07,921.55z"/>
			<path class="st36" d="M1227.5,939.87c-2.02-1.13-3.61-2.7-4.79-4.72c-1.18-2.02-1.76-4.29-1.76-6.81s0.59-4.79,1.76-6.79
				c1.18-2,2.77-3.57,4.79-4.7c2.02-1.13,4.23-1.69,6.63-1.69c2.43,0,4.65,0.56,6.66,1.69c2.02,1.13,3.61,2.69,4.77,4.7
				c1.16,2,1.75,4.27,1.75,6.79s-0.58,4.8-1.75,6.81c-1.16,2.02-2.75,3.59-4.77,4.72s-4.24,1.69-6.66,1.69
				C1231.72,941.55,1229.51,940.99,1227.5,939.87z M1238.69,936.71c1.34-0.78,2.38-1.89,3.14-3.34c0.75-1.45,1.13-3.12,1.13-5.03
				c0-1.91-0.38-3.58-1.13-5.01c-0.76-1.44-1.8-2.54-3.14-3.3c-1.34-0.77-2.86-1.15-4.57-1.15s-3.23,0.38-4.57,1.15
				c-1.34,0.77-2.38,1.87-3.14,3.3c-0.76,1.44-1.13,3.11-1.13,5.01c0,1.91,0.38,3.58,1.13,5.03c0.75,1.45,1.8,2.56,3.14,3.34
				c1.34,0.78,2.86,1.17,4.57,1.17S1237.35,937.49,1238.69,936.71z"/>
			<path class="st36" d="M1278.6,941.29h-4.23l-12.73-19.27v19.27h-4.23v-25.84h4.23l12.73,19.23v-19.23h4.23V941.29z"/>
			<path class="st36" d="M1305.29,915.49v3.45h-10.95v7.61h8.54v3.45h-8.54v11.29h-4.23v-25.8H1305.29z"/>
			<path class="st36" d="M1319.4,915.49v25.8h-4.23v-25.8H1319.4z"/>
			<path class="st36" d="M1346.55,917.07c2.07,1.05,3.66,2.56,4.79,4.53c1.13,1.97,1.69,4.26,1.69,6.89c0,2.62-0.56,4.9-1.69,6.83
				c-1.13,1.93-2.72,3.41-4.79,4.44c-2.07,1.03-4.47,1.54-7.22,1.54h-8.43v-25.8h8.43C1342.08,915.49,1344.48,916.02,1346.55,917.07
				z M1346.27,935.39c1.61-1.63,2.41-3.93,2.41-6.9c0-2.99-0.8-5.33-2.41-7.02c-1.61-1.68-3.92-2.52-6.94-2.52h-4.19v18.9h4.19
				C1342.35,937.84,1344.66,937.03,1346.27,935.39z"/>
			<path class="st36" d="M1367.4,918.91v7.57h8.91v3.45h-8.91v7.91h10.02v3.45h-14.26v-25.84h14.26v3.45H1367.4z"/>
			<path class="st36" d="M1409.75,941.29h-4.23l-12.73-19.27v19.27h-4.23v-25.84h4.23l12.73,19.23v-19.23h4.23V941.29z"/>
			<path class="st36" d="M1421.61,921.55c1.18-2,2.77-3.57,4.79-4.7c2.02-1.13,4.23-1.69,6.63-1.69c2.75,0,5.19,0.67,7.33,2.02
				c2.14,1.35,3.69,3.26,4.66,5.74h-5.09c-0.67-1.36-1.6-2.38-2.78-3.04c-1.19-0.67-2.56-1-4.12-1c-1.71,0-3.23,0.38-4.57,1.15
				c-1.34,0.77-2.38,1.87-3.14,3.3c-0.76,1.44-1.13,3.11-1.13,5.01c0,1.91,0.38,3.58,1.13,5.01c0.75,1.44,1.8,2.54,3.14,3.32
				c1.34,0.78,2.86,1.17,4.57,1.17c1.56,0,2.93-0.33,4.12-1c1.19-0.67,2.12-1.68,2.78-3.04h5.09c-0.97,2.48-2.52,4.38-4.66,5.72
				c-2.14,1.34-4.58,2-7.33,2c-2.43,0-4.64-0.56-6.65-1.69c-2-1.13-3.6-2.69-4.77-4.7c-1.18-2-1.76-4.27-1.76-6.79
				S1420.44,923.55,1421.61,921.55z"/>
			<path class="st36" d="M1460.13,918.91v7.57h8.91v3.45h-8.91v7.91h10.02v3.45h-14.26v-25.84h14.26v3.45H1460.13z"/>
			<path class="st36" d="M1497.23,921.55c1.18-2,2.77-3.57,4.79-4.7c2.02-1.13,4.23-1.69,6.63-1.69c2.75,0,5.19,0.67,7.33,2.02
				c2.14,1.35,3.69,3.26,4.66,5.74h-5.09c-0.67-1.36-1.6-2.38-2.78-3.04c-1.19-0.67-2.56-1-4.12-1c-1.71,0-3.23,0.38-4.57,1.15
				c-1.34,0.77-2.38,1.87-3.14,3.3c-0.76,1.44-1.13,3.11-1.13,5.01c0,1.91,0.38,3.58,1.13,5.01c0.75,1.44,1.8,2.54,3.14,3.32
				c1.34,0.78,2.86,1.17,4.57,1.17c1.56,0,2.93-0.33,4.12-1c1.19-0.67,2.12-1.68,2.78-3.04h5.09c-0.97,2.48-2.52,4.38-4.66,5.72
				c-2.14,1.34-4.58,2-7.33,2c-2.43,0-4.64-0.56-6.65-1.69c-2-1.13-3.6-2.69-4.77-4.7c-1.18-2-1.76-4.27-1.76-6.79
				S1496.06,923.55,1497.23,921.55z"/>
			<path class="st36" d="M1536.66,939.87c-2.02-1.13-3.61-2.7-4.79-4.72c-1.18-2.02-1.76-4.29-1.76-6.81s0.59-4.79,1.76-6.79
				c1.18-2,2.77-3.57,4.79-4.7c2.02-1.13,4.23-1.69,6.63-1.69c2.43,0,4.65,0.56,6.66,1.69c2.02,1.13,3.61,2.69,4.77,4.7
				c1.16,2,1.75,4.27,1.75,6.79s-0.58,4.8-1.75,6.81c-1.16,2.02-2.75,3.59-4.77,4.72s-4.24,1.69-6.66,1.69
				C1540.88,941.55,1538.67,940.99,1536.66,939.87z M1547.85,936.71c1.34-0.78,2.38-1.89,3.14-3.34c0.75-1.45,1.13-3.12,1.13-5.03
				c0-1.91-0.38-3.58-1.13-5.01c-0.76-1.44-1.8-2.54-3.14-3.3c-1.34-0.77-2.86-1.15-4.57-1.15c-1.71,0-3.23,0.38-4.57,1.15
				c-1.34,0.77-2.38,1.87-3.14,3.3c-0.76,1.44-1.13,3.11-1.13,5.01c0,1.91,0.38,3.58,1.13,5.03c0.75,1.45,1.8,2.56,3.14,3.34
				c1.34,0.78,2.86,1.17,4.57,1.17C1544.99,937.88,1546.51,937.49,1547.85,936.71z"/>
			<path class="st36" d="M1593.73,915.49v25.8h-4.23v-17.67l-7.87,17.67h-2.93l-7.91-17.67v17.67h-4.23v-25.8h4.57l9.06,20.23
				l9.02-20.23H1593.73z"/>
			<path class="st36" d="M1609.47,918.91v7.57h8.91v3.45h-8.91v7.91h10.02v3.45h-14.26v-25.84h14.26v3.45H1609.47z"/>
			<path class="st36" d="M1634.46,940.65c-1.39-0.61-2.47-1.47-3.27-2.58c-0.79-1.11-1.19-2.41-1.19-3.9h4.53
				c0.1,1.11,0.54,2.03,1.32,2.75c0.78,0.72,1.87,1.08,3.29,1.08c1.46,0,2.6-0.35,3.42-1.06c0.82-0.71,1.23-1.61,1.23-2.73
				c0-0.87-0.25-1.57-0.76-2.12c-0.51-0.54-1.14-0.97-1.89-1.26c-0.76-0.3-1.8-0.62-3.14-0.97c-1.68-0.45-3.05-0.9-4.1-1.35
				c-1.05-0.46-1.95-1.17-2.69-2.13c-0.74-0.97-1.11-2.25-1.11-3.86c0-1.48,0.37-2.78,1.11-3.9c0.74-1.11,1.78-1.97,3.12-2.56
				c1.34-0.59,2.88-0.89,4.64-0.89c2.5,0,4.55,0.63,6.14,1.87c1.6,1.25,2.48,2.96,2.65,5.14h-4.68c-0.07-0.94-0.52-1.74-1.34-2.41
				c-0.82-0.67-1.89-1-3.23-1c-1.21,0-2.2,0.31-2.97,0.93c-0.77,0.62-1.15,1.51-1.15,2.67c0,0.79,0.24,1.44,0.72,1.95
				c0.48,0.51,1.1,0.91,1.84,1.21c0.74,0.3,1.76,0.62,3.04,0.97c1.71,0.47,3.1,0.94,4.18,1.41c1.08,0.47,1.99,1.19,2.75,2.17
				c0.75,0.98,1.13,2.28,1.13,3.92c0,1.31-0.35,2.55-1.06,3.71c-0.71,1.16-1.73,2.1-3.08,2.8c-1.35,0.71-2.94,1.06-4.77,1.06
				C1637.4,941.55,1635.84,941.25,1634.46,940.65z"/>
			<path class="st36" d="M1689.77,915.49v3.45h-10.95v7.61h8.54v3.45h-8.54v11.29h-4.23v-25.8H1689.77z"/>
			<path class="st36" d="M1713.05,941.29l-5.94-10.32h-3.23v10.32h-4.23v-25.8h8.91c1.98,0,3.66,0.35,5.03,1.04
				c1.37,0.69,2.4,1.62,3.08,2.78c0.68,1.16,1.02,2.46,1.02,3.9c0,1.68-0.49,3.21-1.47,4.58c-0.98,1.37-2.48,2.31-4.51,2.8
				l6.39,10.69H1713.05z M1703.88,927.6h4.68c1.58,0,2.78-0.4,3.58-1.19c0.8-0.79,1.21-1.86,1.21-3.19c0-1.34-0.4-2.38-1.19-3.14
				c-0.79-0.76-1.99-1.13-3.6-1.13h-4.68V927.6z"/>
			<path class="st36" d="M1734.19,939.87c-2.02-1.13-3.61-2.7-4.79-4.72c-1.18-2.02-1.76-4.29-1.76-6.81s0.59-4.79,1.76-6.79
				c1.18-2,2.77-3.57,4.79-4.7c2.02-1.13,4.23-1.69,6.63-1.69c2.43,0,4.65,0.56,6.66,1.69c2.02,1.13,3.61,2.69,4.77,4.7
				c1.16,2,1.75,4.27,1.75,6.79s-0.58,4.8-1.75,6.81c-1.16,2.02-2.75,3.59-4.77,4.72s-4.24,1.69-6.66,1.69
				C1738.41,941.55,1736.2,940.99,1734.19,939.87z M1745.38,936.71c1.34-0.78,2.38-1.89,3.14-3.34c0.75-1.45,1.13-3.12,1.13-5.03
				c0-1.91-0.38-3.58-1.13-5.01c-0.76-1.44-1.8-2.54-3.14-3.3c-1.34-0.77-2.86-1.15-4.57-1.15c-1.71,0-3.23,0.38-4.57,1.15
				c-1.34,0.77-2.38,1.87-3.14,3.3c-0.76,1.44-1.13,3.11-1.13,5.01c0,1.91,0.38,3.58,1.13,5.03c0.75,1.45,1.8,2.56,3.14,3.34
				c1.34,0.78,2.86,1.17,4.57,1.17C1742.52,937.88,1744.04,937.49,1745.38,936.71z"/>
			<path class="st36" d="M1791.26,915.49v25.8h-4.23v-17.67l-7.87,17.67h-2.93l-7.91-17.67v17.67h-4.23v-25.8h4.57l9.06,20.23
				l9.02-20.23H1791.26z"/>
			<path class="st36" d="M1818.72,921.55c1.18-2,2.77-3.57,4.79-4.7c2.02-1.13,4.23-1.69,6.63-1.69c2.75,0,5.19,0.67,7.33,2.02
				c2.14,1.35,3.69,3.26,4.66,5.74h-5.09c-0.67-1.36-1.6-2.38-2.78-3.04c-1.19-0.67-2.56-1-4.12-1c-1.71,0-3.23,0.38-4.57,1.15
				c-1.34,0.77-2.38,1.87-3.14,3.3c-0.76,1.44-1.13,3.11-1.13,5.01c0,1.91,0.38,3.58,1.13,5.01c0.75,1.44,1.8,2.54,3.14,3.32
				c1.34,0.78,2.86,1.17,4.57,1.17c1.56,0,2.93-0.33,4.12-1c1.19-0.67,2.12-1.68,2.78-3.04h5.09c-0.97,2.48-2.52,4.38-4.66,5.72
				c-2.14,1.34-4.58,2-7.33,2c-2.43,0-4.64-0.56-6.65-1.69c-2-1.13-3.6-2.69-4.77-4.7c-1.18-2-1.76-4.27-1.76-6.79
				S1817.54,923.55,1818.72,921.55z"/>
			<path class="st36" d="M1857.23,937.88h8.72v3.42H1853v-25.8h4.23V937.88z"/>
			<path class="st36" d="M1890.97,936.02h-10.8l-1.86,5.27h-4.42l9.24-25.84h4.9l9.24,25.84h-4.45L1890.97,936.02z M1889.79,932.57
				l-4.19-11.99l-4.23,11.99H1889.79z"/>
			<path class="st36" d="M1920.64,941.29l-5.94-10.32h-3.23v10.32h-4.23v-25.8h8.91c1.98,0,3.66,0.35,5.03,1.04
				c1.37,0.69,2.4,1.62,3.08,2.78c0.68,1.16,1.02,2.46,1.02,3.9c0,1.68-0.49,3.21-1.47,4.58c-0.98,1.37-2.48,2.31-4.51,2.8
				l6.39,10.69H1920.64z M1911.47,927.6h4.68c1.58,0,2.78-0.4,3.58-1.19c0.8-0.79,1.21-1.86,1.21-3.19c0-1.34-0.4-2.38-1.19-3.14
				c-0.79-0.76-1.99-1.13-3.6-1.13h-4.68V927.6z"/>
			<path class="st36" d="M1940.87,915.49v25.8h-4.23v-25.8H1940.87z"/>
			<path class="st36" d="M1969.04,915.49v3.45h-6.87v22.35h-4.23v-22.35h-6.9v-3.45H1969.04z"/>
			<path class="st36" d="M1998.37,915.49l-8.54,16.45v9.35h-4.23v-9.35l-8.58-16.45h4.72l5.98,12.66l5.98-12.66H1998.37z"/>
		</g>
		<g>
			<path class="st37" d="M1235.54,869.45c-5.42,1.33-10.73,2.54-16.19,2.78c-0.99,0.05-2.08,0.07-3.45,0.07
				c-8.11,0-19.81-1.1-29.54-6.34c-4.69-2.53-9.05-6.25-12.64-10.75c-6.5-8.2-10.15-20.06-9.76-31.72
				c0.55-16.67,9.39-31.73,23.67-40.28c7.96-4.74,17.33-5.73,23.79-5.73c1.73,0,3.59,0.08,5.53,0.24c3.94,0.35,7.81,0.98,11.53,1.9
				c2.07,0.43,4.19,1.05,6.25,1.64l0.54,0.16c0.27,0.07,0.54,0.15,0.82,0.23c0.53,0.15,1.09,0.31,1.66,0.46
				c2.46,0.68,4.17,0.45,5.09-0.65l1.21,0v21.81h-1v0c-0.29-0.83-0.65-1.61-1.04-2.44l-0.13-0.29c-2.88-6.22-6.6-13.03-12.29-16.36
				c-5.09-2.94-11.01-4.56-16.66-4.56c-9.72,0-17.76,3.21-23.92,9.53c-7.62,7.86-11.77,20.37-11.38,34.3
				c0.23,8.8,2.15,17.96,5.16,24.53c3.43,7.49,8.03,13.09,13.67,16.63c1.91,1.2,3.96,2.23,6.08,3.06c4.17,1.56,8.94,2.39,13.8,2.39
				c3.65,0,7.2-0.46,10.53-1.36c2.58-0.71,5.21-1.98,8.05-3.87c2.37-1.6,4.66-3.8,6.81-6.53c1.14-1.44,2.22-3.07,3.22-4.87
				l1.02-1.98l0.94,0.26l-3.83,15.31l-0.01,0C1240.05,868.11,1237.09,869.07,1235.54,869.45z"/>
			<path class="st37" d="M1382.73,824.33c0,13.72-4.57,25.27-13.57,34.33c-9,9.04-20.06,13.62-32.85,13.62
				c-12.94,0-23.96-4.47-32.75-13.3c-8.8-8.83-13.26-20.43-13.26-34.47c0-14.34,5.16-26.2,15.33-35.24
				c8.83-7.85,19.53-11.84,31.82-11.84c12.19,0,22.89,4.51,31.82,13.4C1378.2,799.72,1382.73,810.98,1382.73,824.33z
				 M1368.99,826.13c0-16.26-3.42-28.64-10.17-36.81c-5.47-6.51-13.11-9.8-22.72-9.8c-9.08,0-16.46,3.3-21.93,9.8
				c-6.72,7.92-10.12,19.65-10.12,34.87c0,15.6,3.53,27.77,10.48,36.18c5.42,6.57,12.7,9.89,21.64,9.89
				c9.46,0,17.39-3.62,23.59-10.76C1365.88,852.41,1368.99,841.18,1368.99,826.13z"/>
			<path class="st37" d="M1495.23,790.69l-28.05,80.47h-6.14l-32.93-80.74c-3.56-7.8-6.75-10.91-11.02-10.91h-0.11v-0.92h30.56v0.92
				h-0.68c-2.54,0-4.4,0.73-5.53,2.31c-1.62,2.29-1.49,5.91,0.39,10.75l27.05,66.18l23-65.76l0.01-0.04
				c1.44-5.36,1.33-8.88-0.36-11.06c-1.26-1.65-3.4-2.38-6.53-2.38h-1.04v-0.92h23.52v0.92h-0.97
				C1500.48,779.51,1497.65,783.93,1495.23,790.69z"/>
			<path class="st37" d="M1585.46,835.5h-34.32l-7.77,21.37c-1.72,5.25-1.75,8.72-0.12,10.91c1.24,1.7,3.42,2.46,6.66,2.46h0.47
				v0.92h-23.31v-0.92h0.32c5.35,0,9.12-3.4,12.24-11.21l29.82-80.45h4.86l35.01,80.57c2.93,6.33,6.08,9.64,10.18,10.72
				c0.24,0.07,0.53,0.13,0.87,0.18c0.37,0.05,1.33,0.12,1.91,0.18v0.92h-33.21v-0.92c0.8,0,2.04-0.01,2.42-0.06
				c1.96-0.25,3.4-0.91,4.29-2.12c1.29-1.81,1.22-4.59-0.21-8.48L1585.46,835.5z M1584.62,833.47l-17.55-41.67l-15.14,41.67H1584.62
				z"/>
			<path class="st37" d="M1682.13,827.45v30.77c0,5.07,0.9,8.33,2.84,10.24c1.26,1.24,2.96,1.77,5.19,1.77h0.48v0.92h-29.56v-0.92
				c2.42,0.06,4.26-0.47,5.63-1.77c1.94-1.88,2.84-5.13,2.84-10.23v-66.69c0-5.1-0.9-8.35-2.84-10.23c-1.32-1.26-3.01-1.8-5.16-1.8
				h-0.47v-0.92h40.78c20.55,0,32.34,8.64,32.34,23.7c0,13.74-10.32,22.75-28.3,24.74l-3.38,0.36l2.89,1.79
				c0.27,0.17,0.52,0.34,0.79,0.52l0.45,0.28c0.41,0.28,0.74,0.49,0.95,0.62c3.38,2.04,6.45,4.73,9.38,8.25
				c0.75,0.85,1.41,1.7,2.04,2.58l1.86,2.58l2.5,3.51c2.8,3.98,5.97,8.48,9.42,12.55l0.26,0.31c2.78,3.29,7.42,8.81,13.33,9.87v0.92
				c-1.61,0-6.62,0-8.87-0.02l-2.11-0.02c-13.32,0-17.63-8.69-23.6-20.72l-0.11-0.24c-1.61-3.25-2.9-5.8-4.38-8.51
				c-2.16-3.98-4.85-7.35-8-10.02c-1.31-1.14-2.78-2.18-4.37-3.09l-0.58-0.37c-0.24-0.15-0.55-0.33-0.9-0.54l-0.29-0.2H1682.13z
				 M1682.13,825.43h16.14c14.16,0,22.61-8.64,22.61-23.11c0-6.92-1.65-12.31-4.91-16.03c-3.27-3.74-8.02-5.63-14.11-5.63h-19.74
				V825.43z"/>
			<path class="st37" d="M1849.56,866.26c-4.7,3.8-12.55,6.03-21.54,6.03c-4.25,0-8.91-0.61-13.1-1.64
				c-7.5-1.84-13.69-6.04-17.45-11.8c-1.79-2.74-3.12-5.96-3.94-9.55c-1.63-6.79-1.74-14.21-1.84-20.77l0-0.18
				c-0.09-4.6-0.1-15.23-0.1-23.34v-13.54c0-7.97-2.27-11.61-7.38-11.98l-1.11,0v-0.92h29.54v0.92c-0.27,0-0.62,0-0.73,0.01
				c-1.23,0.02-2.41,0.2-3.43,0.67c-0.77,0.36-1.44,0.9-2,1.6c-0.53,0.66-0.97,1.48-1.33,2.42c-0.36,0.97-0.62,2.05-0.77,3.3
				c-0.17,1.33-0.25,2.71-0.25,4.1c0,3.85,0,37.68,0.05,41.41c0,4.33,0.2,8.02,0.62,11.61c0.66,5.58,1.91,10.01,3.69,13.18
				c1.78,3.2,4.41,5.9,7.84,8.02c3.39,2.08,7.59,3.14,12.47,3.14c5.05,0,12.2-0.74,17.56-4.27c4.94-3.23,8.37-7.44,10.19-12.53
				c1.73-4.79,1.72-13.11,1.7-23.64v-35.59c0-5.57-1.02-9.17-3.2-11.31c-1.54-1.48-3.58-2.13-6.24-2.13c-0.05,0-0.77,0-0.77,0v-0.92
				h23.02v0.92c-0.26,0-1.71,0-1.74,0c-1.97,0.18-3.52,0.81-4.73,1.99c-2.16,2.07-3.17,5.7-3.17,11.42l-0.05,34.81
				c0,10.59-0.13,18.53-1.84,24.2C1857.86,857.44,1854.51,862.27,1849.56,866.26z"/>
			<path class="st37" d="M2020.74,870.24v0.92h-29.53v-0.92l0.44,0c2.23,0,3.93-0.53,5.21-1.77c1.94-1.87,2.84-5.12,2.84-10.23
				v-74.25l-36.07,84.04h-2.96l-35.78-76.86l0.07,68.86c0,0.12,0,0.24,0.01,0.36l0.02,0.5h0.01c0.32,5.83,3.48,9.36,8.33,9.36
				l0.42,0v0.92h-20.27v-0.92l0.42,0c4.98,0,8.18-3.73,8.35-9.85l0-0.05c0-0.1,0.01-0.21,0.01-0.32v-71.26v-0.02
				c-0.29-6.27-2.77-9.24-7.6-9.24h-0.46v-0.92h19.58l33.52,74.09l31.71-74.09h21.71v0.92h-0.28c-2.27,0-4.07,0.55-5.35,1.77
				c-1.95,1.9-2.86,5.16-2.84,10.25v66.68c0,5.11,0.92,8.36,2.87,10.23c1.28,1.27,2.98,1.81,5.18,1.81L2020.74,870.24z"/>
		</g>
	</g>
	<g>
		<path class="st37" d="M1059.79,827.33L1059.79,827.33c0,16.79-13.61,30.4-30.4,30.4c16.79,0,30.4,13.61,30.4,30.4h0
			c0-16.79,13.61-30.4,30.4-30.4C1073.4,857.73,1059.79,844.12,1059.79,827.33z"/>
		<path class="st37" d="M1066.28,970.91c-0.81-0.69-1.99-0.7-2.84-0.04c-22.05,17.06-49.28,27.13-78.74,27.13
			c-8.38,0-16.58-0.82-24.53-2.38V719.85c7.95-1.56,16.15-2.38,24.53-2.38c29.46,0,56.69,10.07,78.74,27.13
			c0.84,0.65,2.02,0.64,2.84-0.04c0.01-0.01,0.02-0.02,0.04-0.03c1.11-0.93,1.07-2.63-0.07-3.52c-25.1-19.59-56.69-31.27-91-31.27
			c-5.09,0-10.13,0.26-15.09,0.76v-47.84c0-1.45-1.17-2.62-2.62-2.62s-2.62,1.17-2.62,2.62v48.48
			c-72.12,9.91-127.67,71.77-127.67,146.61s55.56,136.7,127.67,146.61v53.01c0,1.45,1.17,2.62,2.62,2.62s2.62-1.17,2.62-2.62v-52.38
			c4.96,0.5,9.99,0.76,15.09,0.76c34.31,0,65.89-11.68,91-31.27c1.14-0.89,1.17-2.59,0.07-3.52
			C1066.3,970.93,1066.29,970.92,1066.28,970.91z M851.51,857.73c0-66.69,44.2-122.5,103.42-136.75v273.49
			C895.7,980.23,851.51,924.42,851.51,857.73z"/>
	</g>
</g>
</svg>
