<?xml version="1.0" encoding="utf-8"?>
<!-- Generator: Adobe Illustrator 28.2.0, SVG Export Plug-In . SVG Version: 6.00 Build 0)  -->
<svg version="1.1" id="Layer_1" xmlns="http://www.w3.org/2000/svg" xmlns:xlink="http://www.w3.org/1999/xlink" x="0px" y="0px"
	 viewBox="0 0 2848 1720" style="enable-background:new 0 0 2848 1720;" xml:space="preserve">
<style type="text/css">
	.st0{fill:url(#SVGID_1_);}
	.st1{fill:url(#SVGID_00000112616923575914069070000006816324912966566326_);}
	.st2{fill:url(#SVGID_00000157302337993546765800000006383378903654455473_);}
	.st3{fill:url(#SVGID_00000086675489840059902310000004449722916724476055_);}
	.st4{fill:url(#SVGID_00000169544202426462184890000002833926047731434648_);}
	.st5{fill:url(#SVGID_00000011753422876505361490000012036731955477941436_);}
	.st6{fill:url(#SVGID_00000014607873407327987220000015577336283330236040_);}
	.st7{fill:url(#SVGID_00000063592370182283493710000007827726804844677043_);}
	.st8{fill:url(#SVGID_00000104682646332105651750000009370620443029687424_);}
	.st9{fill:url(#SVGID_00000020385237933331711890000002973653041524614531_);}
	.st10{fill:url(#SVGID_00000092453084582140438660000009144867810981575064_);}
	.st11{fill:url(#SVGID_00000144309273022212722310000006313657475342369963_);}
	.st12{fill:url(#SVGID_00000127766513387656323170000012897077622061411774_);}
	.st13{fill:url(#SVGID_00000085221562971343980020000003104294766666238351_);}
	.st14{fill:url(#SVGID_00000111188018416636549070000006281724250825281923_);}
	.st15{fill:url(#SVGID_00000150065382190578326180000001437137571358009790_);}
	.st16{fill:url(#SVGID_00000115475490626652259710000005913748670269584308_);}
	.st17{fill:url(#SVGID_00000163064044206610842940000000850116170774168740_);}
	.st18{fill:url(#SVGID_00000047764656186718431350000002988551623843784373_);}
	.st19{fill:url(#SVGID_00000079458919229723797440000004684833704895396269_);}
	.st20{fill:url(#SVGID_00000147925121925878948060000012541270050382932115_);}
	.st21{fill:url(#SVGID_00000043431569019099955770000010385448146163504803_);}
	.st22{fill:url(#SVGID_00000081638987372886551380000017946508031070144171_);}
	.st23{fill:url(#SVGID_00000110459443151542783000000007038020739279987110_);}
	.st24{fill:url(#SVGID_00000036226127485268847640000013321816777340241581_);}
	.st25{fill:url(#SVGID_00000109021554306834589050000017731646417420519296_);}
	.st26{fill:url(#SVGID_00000140013012776537940400000009820809939907101334_);}
	.st27{fill:url(#SVGID_00000090288821952573875720000003125001818779881406_);}
	.st28{fill:url(#SVGID_00000069380753612891763050000000696099993866352030_);}
	.st29{fill:url(#SVGID_00000076604872014409185000000012016518708936024711_);}
	.st30{fill:url(#SVGID_00000109746760949394414180000006265247623532332932_);}
	.st31{fill:url(#SVGID_00000037663687701937160870000016283643693594363540_);}
	.st32{fill:#FFFFFF;}
	.st33{fill:#DCC0A1;}
	.st34{fill:#BB824D;}
</style>
<g>
	<g>
		<g>
			<path class="st33" d="M1065.56,973.33c-0.5,0-0.99,0.17-1.38,0.48c-6.03,4.72-12.43,8.97-19.03,12.64
				c-18.29,10.17-39.11,15.55-60.21,15.55c-24.25,0-47.79-6.94-68.09-20.08c-41.56-26.9-66.38-72.47-66.38-121.91
				c0-48.1,23.78-93,63.62-120.08c20.96-14.26,45.47-21.79,70.87-21.79c22.24,0,44.06,5.91,63.11,17.09
				c5.56,3.27,10.98,6.96,16.12,10.98c0.39,0.31,0.88,0.47,1.38,0.47c0.69,0,1.34-0.31,1.77-0.86c0.76-0.97,0.59-2.39-0.39-3.15
				c-25.75-20.15-56.62-31.07-89.3-31.58c-0.77-0.01-1.56-0.02-2.33-0.02c-78.83,0-144.17,61.53-148.74,140.07
				c-2.41,41.42,11.92,80.84,40.37,110.99c28.06,29.75,67.54,46.81,108.31,46.81c33.58,0,65.29-10.92,91.7-31.59
				c0.97-0.76,1.15-2.17,0.38-3.15C1066.9,973.64,1066.26,973.33,1065.56,973.33z"/>
			<path class="st33" d="M970.05,661.06c-1.24,0-2.24,1.01-2.24,2.24v393.4c0,1.24,1.01,2.24,2.24,2.24c1.24,0,2.24-1.01,2.24-2.24
				V663.3C972.29,662.06,971.29,661.06,970.05,661.06z"/>
		</g>
		<path class="st33" d="M1060.3,829.41L1060.3,829.41c0,16.9-13.7,30.59-30.59,30.59c16.9,0,30.59,13.7,30.59,30.59h0
			c0-16.9,13.7-30.59,30.59-30.59C1074,860,1060.3,846.3,1060.3,829.41z"/>
	</g>
	<g>
		<g>
			<path class="st33" d="M1235.98,869.47c-5.38,1.32-10.66,2.52-16.08,2.76c-0.98,0.05-2.07,0.07-3.43,0.07
				c-8.05,0-19.67-1.09-29.34-6.3c-4.65-2.51-8.99-6.2-12.55-10.67c-6.45-8.15-10.08-19.92-9.69-31.5c0.54-16.56,9.33-31.51,23.5-40
				c7.9-4.7,17.21-5.69,23.62-5.69c1.72,0,3.57,0.08,5.49,0.24c3.91,0.34,7.75,0.98,11.45,1.89c2.05,0.43,4.16,1.04,6.2,1.63
				l0.54,0.16c0.27,0.07,0.54,0.15,0.81,0.23c0.53,0.15,1.08,0.31,1.65,0.45c2.44,0.67,4.14,0.45,5.05-0.64l1.2,0v21.66h-0.99v0
				c-0.28-0.82-0.65-1.6-1.03-2.43l-0.13-0.29c-2.86-6.18-6.56-12.94-12.21-16.24c-5.06-2.92-10.93-4.53-16.54-4.53
				c-9.65,0-17.64,3.18-23.75,9.47c-7.56,7.81-11.69,20.22-11.3,34.06c0.23,8.73,2.14,17.84,5.12,24.35
				c3.41,7.44,7.98,13,13.58,16.51c1.9,1.19,3.93,2.21,6.04,3.04c4.14,1.55,8.88,2.37,13.7,2.37c3.63,0,7.14-0.45,10.46-1.35
				c2.56-0.7,5.18-1.96,8-3.85c2.35-1.59,4.62-3.77,6.76-6.48c1.13-1.43,2.21-3.05,3.2-4.83l1.01-1.96l0.93,0.26l-3.8,15.21l-0.01,0
				C1240.45,868.14,1237.52,869.1,1235.98,869.47z"/>
			<path class="st33" d="M1382.14,824.67c0,13.63-4.53,25.1-13.48,34.09c-8.94,8.98-19.92,13.53-32.62,13.53
				c-12.85,0-23.79-4.44-32.52-13.2c-8.74-8.77-13.17-20.29-13.17-34.23c0-14.24,5.12-26.01,15.22-35
				c8.76-7.8,19.4-11.75,31.6-11.75c12.1,0,22.73,4.48,31.6,13.31C1377.64,800.23,1382.14,811.41,1382.14,824.67z M1368.49,826.45
				c0-16.15-3.4-28.44-10.1-36.55c-5.43-6.46-13.02-9.74-22.56-9.74c-9.01,0-16.34,3.28-21.77,9.73
				c-6.67,7.86-10.05,19.51-10.05,34.62c0,15.49,3.5,27.58,10.41,35.93c5.39,6.52,12.61,9.82,21.49,9.82
				c9.39,0,17.27-3.59,23.43-10.69C1365.41,852.55,1368.49,841.4,1368.49,826.45z"/>
			<path class="st33" d="M1494.85,791.26L1467,871.17h-6.09l-32.7-80.17c-3.53-7.75-6.7-10.83-10.94-10.83h-0.11v-0.91h30.35v0.91
				h-0.68c-2.52,0-4.37,0.72-5.49,2.29c-1.61,2.28-1.48,5.86,0.39,10.67l26.86,65.72l22.84-65.3l0.01-0.04
				c1.43-5.32,1.32-8.82-0.36-10.98c-1.26-1.64-3.38-2.36-6.49-2.36h-1.03v-0.91h23.35v0.91h-0.97
				C1500.06,780.16,1497.26,784.55,1494.85,791.26z"/>
			<path class="st33" d="M1585.45,835.76h-34.08l-7.72,21.22c-1.7,5.22-1.74,8.66-0.12,10.83c1.23,1.69,3.4,2.44,6.61,2.44h0.47
				v0.91h-23.15v-0.91h0.31c5.31,0,9.06-3.38,12.15-11.13l29.61-79.88h4.83l34.76,80.01c2.91,6.28,6.03,9.57,10.11,10.65
				c0.24,0.07,0.53,0.13,0.87,0.18c0.37,0.05,1.32,0.12,1.9,0.18v0.91h-32.98v-0.91c0.79,0,2.03-0.01,2.4-0.06
				c1.95-0.25,3.38-0.91,4.26-2.11c1.28-1.8,1.21-4.55-0.21-8.42L1585.45,835.76z M1584.61,833.74l-17.43-41.38l-15.03,41.38
				H1584.61z"/>
			<path class="st33" d="M1685.44,827.76v30.56c0,5.04,0.9,8.27,2.82,10.17c1.25,1.24,2.94,1.76,5.16,1.76h0.47v0.91h-29.36v-0.91
				c2.4,0.06,4.23-0.47,5.59-1.76c1.92-1.87,2.82-5.1,2.82-10.16v-66.23c0-5.06-0.9-8.29-2.82-10.16c-1.31-1.25-2.98-1.79-5.12-1.79
				h-0.47v-0.91h40.49c20.41,0,32.11,8.58,32.11,23.53c0,13.64-10.24,22.59-28.1,24.56l-3.35,0.36l2.87,1.78
				c0.27,0.17,0.52,0.34,0.78,0.51l0.45,0.28c0.41,0.28,0.74,0.49,0.95,0.61c3.36,2.02,6.41,4.7,9.32,8.19
				c0.74,0.85,1.4,1.68,2.02,2.56l1.85,2.56l2.48,3.48c2.78,3.95,5.93,8.42,9.36,12.46l0.26,0.31c2.76,3.27,7.37,8.75,13.23,9.8
				v0.91c-1.6,0-6.58,0-8.81-0.02l-2.09-0.02c-13.22,0-17.51-8.63-23.44-20.57l-0.11-0.24c-1.59-3.23-2.88-5.76-4.35-8.45
				c-2.15-3.95-4.82-7.3-7.94-9.95c-1.3-1.13-2.76-2.16-4.34-3.07l-0.58-0.36c-0.24-0.15-0.55-0.33-0.89-0.53l-0.28-0.2H1685.44z
				 M1685.44,825.76h16.03c14.06,0,22.45-8.58,22.45-22.95c0-6.87-1.64-12.23-4.87-15.92c-3.25-3.71-7.96-5.59-14.01-5.59h-19.6
				V825.76z"/>
			<path class="st33" d="M1851.7,866.31c-4.66,3.77-12.46,5.99-21.39,5.99c-4.22,0-8.84-0.61-13.01-1.62
				c-7.44-1.83-13.6-5.99-17.32-11.72c-1.78-2.72-3.09-5.91-3.92-9.48c-1.61-6.74-1.73-14.11-1.83-20.62l0-0.18
				c-0.08-4.57-0.1-15.12-0.1-23.17v-13.44c0-7.92-2.26-11.53-7.32-11.89l-1.1,0v-0.92h29.34v0.91c-0.27,0-0.62,0-0.73,0.01
				c-1.22,0.02-2.39,0.2-3.4,0.67c-0.76,0.36-1.43,0.89-1.99,1.59c-0.52,0.66-0.97,1.47-1.32,2.41c-0.36,0.96-0.61,2.03-0.77,3.28
				c-0.16,1.32-0.25,2.69-0.25,4.07c0,3.82,0,37.42,0.05,41.12c0,4.3,0.2,7.97,0.62,11.53c0.66,5.54,1.89,9.94,3.67,13.09
				c1.77,3.18,4.38,5.86,7.78,7.96c3.37,2.07,7.53,3.12,12.38,3.12c5.01,0,12.11-0.73,17.44-4.24c4.91-3.2,8.31-7.39,10.12-12.44
				c1.72-4.75,1.7-13.01,1.69-23.47v-35.34c0-5.53-1.01-9.1-3.18-11.23c-1.52-1.47-3.55-2.12-6.19-2.12c-0.05,0-0.76,0-0.76,0v-0.91
				h22.86v0.91c-0.25,0-1.7,0-1.73,0c-1.96,0.18-3.49,0.8-4.7,1.98c-2.15,2.06-3.15,5.66-3.15,11.34l-0.05,34.57
				c0,10.52-0.13,18.4-1.82,24.03C1859.94,857.55,1856.61,862.34,1851.7,866.31z"/>
			<path class="st33" d="M2021.69,870.25v0.92h-29.32v-0.92l0.44,0c2.21,0,3.9-0.53,5.17-1.76c1.93-1.85,2.82-5.08,2.82-10.16V784.6
				l-35.81,83.45h-2.94l-35.53-76.32l0.07,68.38c0,0.12,0,0.24,0.01,0.36l0.02,0.49h0.01c0.32,5.79,3.46,9.29,8.27,9.29l0.42,0v0.91
				h-20.12v-0.91l0.42,0c4.95,0,8.12-3.71,8.29-9.78l0-0.05c0-0.1,0.01-0.2,0.01-0.31v-70.76v-0.02c-0.28-6.22-2.75-9.17-7.55-9.17
				h-0.45v-0.91h19.44l33.28,73.57l31.49-73.57h21.56v0.91h-0.28c-2.25,0-4.04,0.54-5.31,1.76c-1.94,1.89-2.84,5.12-2.82,10.18
				v66.21c0,5.07,0.91,8.3,2.85,10.16c1.27,1.26,2.96,1.8,5.14,1.8L2021.69,870.25z"/>
		</g>
		<g>
			<path class="st34" d="M1189.01,921.88c1.18-2,2.77-3.57,4.79-4.7c2.02-1.13,4.23-1.69,6.63-1.69c2.75,0,5.19,0.67,7.33,2.02
				c2.14,1.35,3.69,3.26,4.66,5.74h-5.09c-0.67-1.36-1.6-2.38-2.78-3.04c-1.19-0.67-2.56-1-4.12-1c-1.71,0-3.23,0.38-4.57,1.15
				c-1.34,0.77-2.38,1.87-3.14,3.3c-0.76,1.44-1.13,3.11-1.13,5.01c0,1.91,0.38,3.58,1.13,5.01c0.75,1.44,1.8,2.54,3.14,3.32
				c1.34,0.78,2.86,1.17,4.57,1.17c1.56,0,2.93-0.33,4.12-1c1.19-0.67,2.12-1.68,2.78-3.04h5.09c-0.97,2.48-2.52,4.38-4.66,5.72
				c-2.14,1.34-4.58,2-7.33,2c-2.43,0-4.64-0.56-6.65-1.69c-2-1.13-3.6-2.69-4.77-4.7s-1.76-4.27-1.76-6.79
				C1187.25,926.15,1187.84,923.88,1189.01,921.88z"/>
			<path class="st34" d="M1228.44,940.2c-2.02-1.13-3.61-2.7-4.79-4.72c-1.18-2.02-1.76-4.29-1.76-6.81c0-2.52,0.59-4.79,1.76-6.79
				c1.18-2,2.77-3.57,4.79-4.7c2.02-1.13,4.23-1.69,6.63-1.69c2.43,0,4.65,0.56,6.66,1.69c2.02,1.13,3.61,2.69,4.77,4.7
				c1.16,2,1.75,4.27,1.75,6.79c0,2.52-0.58,4.8-1.75,6.81c-1.16,2.02-2.75,3.59-4.77,4.72s-4.24,1.69-6.66,1.69
				C1232.67,941.89,1230.46,941.33,1228.44,940.2z M1239.63,937.04c1.34-0.78,2.38-1.89,3.14-3.34c0.75-1.45,1.13-3.12,1.13-5.03
				c0-1.91-0.38-3.58-1.13-5.01c-0.76-1.43-1.8-2.54-3.14-3.3c-1.34-0.77-2.86-1.15-4.57-1.15c-1.71,0-3.23,0.38-4.57,1.15
				c-1.34,0.77-2.38,1.87-3.14,3.3c-0.76,1.44-1.13,3.11-1.13,5.01c0,1.91,0.38,3.58,1.13,5.03c0.75,1.45,1.8,2.56,3.14,3.34
				c1.34,0.78,2.86,1.17,4.57,1.17C1236.77,938.21,1238.3,937.82,1239.63,937.04z"/>
			<path class="st34" d="M1279.54,941.63h-4.23l-12.73-19.27v19.27h-4.23v-25.84h4.23l12.73,19.23v-19.23h4.23V941.63z"/>
			<path class="st34" d="M1306.23,915.83v3.45h-10.95v7.61h8.54v3.45h-8.54v11.29h-4.23v-25.8H1306.23z"/>
			<path class="st34" d="M1320.34,915.83v25.8h-4.23v-25.8H1320.34z"/>
			<path class="st34" d="M1347.49,917.41c2.07,1.05,3.66,2.56,4.79,4.53c1.13,1.97,1.69,4.26,1.69,6.89s-0.56,4.9-1.69,6.83
				c-1.13,1.93-2.72,3.41-4.79,4.44c-2.07,1.03-4.47,1.54-7.22,1.54h-8.43v-25.8h8.43C1343.02,915.83,1345.43,916.35,1347.49,917.41
				z M1347.21,935.73c1.61-1.63,2.41-3.93,2.41-6.9c0-2.99-0.8-5.33-2.41-7.02c-1.61-1.68-3.92-2.52-6.94-2.52h-4.19v18.9h4.19
				C1343.29,938.18,1345.61,937.36,1347.21,935.73z"/>
			<path class="st34" d="M1368.34,919.24v7.57h8.91v3.45h-8.91v7.91h10.02v3.45h-14.26v-25.84h14.26v3.45H1368.34z"/>
			<path class="st34" d="M1410.69,941.63h-4.23l-12.73-19.27v19.27h-4.23v-25.84h4.23l12.73,19.23v-19.23h4.23V941.63z"/>
			<path class="st34" d="M1422.55,921.88c1.18-2,2.77-3.57,4.79-4.7c2.02-1.13,4.23-1.69,6.63-1.69c2.75,0,5.19,0.67,7.33,2.02
				c2.14,1.35,3.69,3.26,4.66,5.74h-5.09c-0.67-1.36-1.6-2.38-2.78-3.04c-1.19-0.67-2.56-1-4.12-1c-1.71,0-3.23,0.38-4.57,1.15
				c-1.34,0.77-2.38,1.87-3.14,3.3c-0.76,1.44-1.13,3.11-1.13,5.01c0,1.91,0.38,3.58,1.13,5.01c0.75,1.44,1.8,2.54,3.14,3.32
				c1.34,0.78,2.86,1.17,4.57,1.17c1.56,0,2.93-0.33,4.12-1c1.19-0.67,2.12-1.68,2.78-3.04h5.09c-0.97,2.48-2.52,4.38-4.66,5.72
				c-2.14,1.34-4.58,2-7.33,2c-2.43,0-4.64-0.56-6.65-1.69c-2-1.13-3.6-2.69-4.77-4.7c-1.18-2-1.76-4.27-1.76-6.79
				C1420.79,926.15,1421.38,923.88,1422.55,921.88z"/>
			<path class="st34" d="M1461.07,919.24v7.57h8.91v3.45h-8.91v7.91h10.02v3.45h-14.26v-25.84h14.26v3.45H1461.07z"/>
			<path class="st34" d="M1498.17,921.88c1.18-2,2.77-3.57,4.79-4.7c2.02-1.13,4.23-1.69,6.63-1.69c2.75,0,5.19,0.67,7.33,2.02
				c2.14,1.35,3.69,3.26,4.66,5.74h-5.09c-0.67-1.36-1.6-2.38-2.78-3.04c-1.19-0.67-2.56-1-4.12-1c-1.71,0-3.23,0.38-4.57,1.15
				c-1.34,0.77-2.38,1.87-3.14,3.3c-0.76,1.44-1.13,3.11-1.13,5.01c0,1.91,0.38,3.58,1.13,5.01c0.75,1.44,1.8,2.54,3.14,3.32
				c1.34,0.78,2.86,1.17,4.57,1.17c1.56,0,2.93-0.33,4.12-1c1.19-0.67,2.12-1.68,2.78-3.04h5.09c-0.97,2.48-2.52,4.38-4.66,5.72
				c-2.14,1.34-4.58,2-7.33,2c-2.43,0-4.64-0.56-6.65-1.69c-2-1.13-3.6-2.69-4.77-4.7c-1.18-2-1.76-4.27-1.76-6.79
				C1496.41,926.15,1497,923.88,1498.17,921.88z"/>
			<path class="st34" d="M1537.6,940.2c-2.02-1.13-3.61-2.7-4.79-4.72c-1.18-2.02-1.76-4.29-1.76-6.81c0-2.52,0.59-4.79,1.76-6.79
				c1.18-2,2.77-3.57,4.79-4.7c2.02-1.13,4.23-1.69,6.63-1.69c2.43,0,4.65,0.56,6.66,1.69c2.02,1.13,3.61,2.69,4.77,4.7
				c1.16,2,1.75,4.27,1.75,6.79c0,2.52-0.58,4.8-1.75,6.81c-1.16,2.02-2.75,3.59-4.77,4.72s-4.24,1.69-6.66,1.69
				C1541.82,941.89,1539.62,941.33,1537.6,940.2z M1548.79,937.04c1.34-0.78,2.38-1.89,3.14-3.34c0.75-1.45,1.13-3.12,1.13-5.03
				c0-1.91-0.38-3.58-1.13-5.01c-0.76-1.43-1.8-2.54-3.14-3.3c-1.34-0.77-2.86-1.15-4.57-1.15s-3.23,0.38-4.57,1.15
				c-1.34,0.77-2.38,1.87-3.14,3.3c-0.76,1.44-1.13,3.11-1.13,5.01c0,1.91,0.38,3.58,1.13,5.03c0.75,1.45,1.8,2.56,3.14,3.34
				c1.34,0.78,2.86,1.17,4.57,1.17S1547.45,937.82,1548.79,937.04z"/>
			<path class="st34" d="M1594.68,915.83v25.8h-4.23v-17.67l-7.87,17.67h-2.93l-7.91-17.67v17.67h-4.23v-25.8h4.57l9.06,20.23
				l9.02-20.23H1594.68z"/>
			<path class="st34" d="M1610.42,919.24v7.57h8.91v3.45h-8.91v7.91h10.02v3.45h-14.26v-25.84h14.26v3.45H1610.42z"/>
			<path class="st34" d="M1635.4,940.98c-1.39-0.61-2.48-1.47-3.27-2.58c-0.79-1.11-1.19-2.41-1.19-3.9h4.53
				c0.1,1.11,0.54,2.03,1.32,2.75c0.78,0.72,1.87,1.08,3.29,1.08c1.46,0,2.6-0.35,3.42-1.06c0.82-0.71,1.23-1.61,1.23-2.73
				c0-0.87-0.25-1.57-0.76-2.12c-0.51-0.54-1.14-0.97-1.89-1.26c-0.76-0.3-1.8-0.62-3.14-0.97c-1.68-0.45-3.05-0.9-4.1-1.35
				c-1.05-0.46-1.95-1.17-2.69-2.13c-0.74-0.97-1.11-2.25-1.11-3.86c0-1.48,0.37-2.78,1.11-3.9c0.74-1.11,1.78-1.97,3.12-2.56
				c1.34-0.59,2.88-0.89,4.64-0.89c2.5,0,4.55,0.63,6.14,1.87c1.6,1.25,2.48,2.96,2.65,5.14h-4.68c-0.07-0.94-0.52-1.74-1.34-2.41
				c-0.82-0.67-1.89-1-3.23-1c-1.21,0-2.2,0.31-2.97,0.93c-0.77,0.62-1.15,1.51-1.15,2.67c0,0.79,0.24,1.44,0.72,1.95
				c0.48,0.51,1.1,0.91,1.84,1.21c0.74,0.3,1.76,0.62,3.04,0.97c1.71,0.47,3.1,0.94,4.18,1.41c1.08,0.47,1.99,1.19,2.75,2.17
				c0.75,0.98,1.13,2.28,1.13,3.92c0,1.31-0.35,2.55-1.06,3.71c-0.71,1.16-1.73,2.1-3.08,2.8c-1.35,0.71-2.94,1.06-4.77,1.06
				C1638.34,941.89,1636.78,941.59,1635.4,940.98z"/>
			<path class="st34" d="M1690.71,915.83v3.45h-10.95v7.61h8.54v3.45h-8.54v11.29h-4.23v-25.8H1690.71z"/>
			<path class="st34" d="M1713.99,941.63l-5.94-10.32h-3.23v10.32h-4.23v-25.8h8.91c1.98,0,3.66,0.35,5.03,1.04
				c1.37,0.69,2.4,1.62,3.08,2.78c0.68,1.16,1.02,2.46,1.02,3.9c0,1.68-0.49,3.21-1.47,4.58c-0.98,1.37-2.48,2.31-4.51,2.8
				l6.39,10.69H1713.99z M1704.82,927.93h4.68c1.58,0,2.78-0.4,3.58-1.19c0.8-0.79,1.21-1.86,1.21-3.19s-0.4-2.38-1.19-3.14
				c-0.79-0.76-1.99-1.13-3.6-1.13h-4.68V927.93z"/>
			<path class="st34" d="M1735.13,940.2c-2.02-1.13-3.61-2.7-4.79-4.72c-1.18-2.02-1.76-4.29-1.76-6.81c0-2.52,0.59-4.79,1.76-6.79
				c1.18-2,2.77-3.57,4.79-4.7c2.02-1.13,4.23-1.69,6.63-1.69c2.43,0,4.65,0.56,6.66,1.69c2.02,1.13,3.61,2.69,4.77,4.7
				c1.16,2,1.75,4.27,1.75,6.79c0,2.52-0.58,4.8-1.75,6.81c-1.16,2.02-2.75,3.59-4.77,4.72s-4.24,1.69-6.66,1.69
				C1739.35,941.89,1737.15,941.33,1735.13,940.2z M1746.32,937.04c1.34-0.78,2.38-1.89,3.14-3.34c0.75-1.45,1.13-3.12,1.13-5.03
				c0-1.91-0.38-3.58-1.13-5.01c-0.76-1.43-1.8-2.54-3.14-3.3c-1.34-0.77-2.86-1.15-4.57-1.15c-1.71,0-3.23,0.38-4.57,1.15
				c-1.34,0.77-2.38,1.87-3.14,3.3c-0.76,1.44-1.13,3.11-1.13,5.01c0,1.91,0.38,3.58,1.13,5.03c0.75,1.45,1.8,2.56,3.14,3.34
				c1.34,0.78,2.86,1.17,4.57,1.17C1743.46,938.21,1744.98,937.82,1746.32,937.04z"/>
			<path class="st34" d="M1792.21,915.83v25.8h-4.23v-17.67l-7.87,17.67h-2.93l-7.91-17.67v17.67h-4.23v-25.8h4.57l9.06,20.23
				l9.02-20.23H1792.21z"/>
			<path class="st34" d="M1819.66,921.88c1.18-2,2.77-3.57,4.79-4.7c2.02-1.13,4.23-1.69,6.63-1.69c2.75,0,5.19,0.67,7.33,2.02
				c2.14,1.35,3.69,3.26,4.66,5.74h-5.09c-0.67-1.36-1.6-2.38-2.78-3.04c-1.19-0.67-2.56-1-4.12-1c-1.71,0-3.23,0.38-4.57,1.15
				c-1.34,0.77-2.38,1.87-3.14,3.3c-0.76,1.44-1.13,3.11-1.13,5.01c0,1.91,0.38,3.58,1.13,5.01c0.75,1.44,1.8,2.54,3.14,3.32
				c1.34,0.78,2.86,1.17,4.57,1.17c1.56,0,2.93-0.33,4.12-1c1.19-0.67,2.12-1.68,2.78-3.04h5.09c-0.97,2.48-2.52,4.38-4.66,5.72
				c-2.14,1.34-4.58,2-7.33,2c-2.43,0-4.64-0.56-6.65-1.69c-2-1.13-3.6-2.69-4.77-4.7c-1.18-2-1.76-4.27-1.76-6.79
				C1817.89,926.15,1818.48,923.88,1819.66,921.88z"/>
			<path class="st34" d="M1858.17,938.21h8.72v3.42h-12.96v-25.8h4.23V938.21z"/>
			<path class="st34" d="M1891.92,936.36h-10.8l-1.86,5.27h-4.42l9.24-25.84h4.9l9.24,25.84h-4.45L1891.92,936.36z M1890.73,932.9
				l-4.19-11.99l-4.23,11.99H1890.73z"/>
			<path class="st34" d="M1921.58,941.63l-5.94-10.32h-3.23v10.32h-4.23v-25.8h8.91c1.98,0,3.66,0.35,5.03,1.04
				c1.37,0.69,2.4,1.62,3.08,2.78c0.68,1.16,1.02,2.46,1.02,3.9c0,1.68-0.49,3.21-1.47,4.58c-0.98,1.37-2.48,2.31-4.51,2.8
				l6.39,10.69H1921.58z M1912.41,927.93h4.68c1.58,0,2.78-0.4,3.58-1.19c0.8-0.79,1.21-1.86,1.21-3.19s-0.4-2.38-1.19-3.14
				c-0.79-0.76-1.99-1.13-3.6-1.13h-4.68V927.93z"/>
			<path class="st34" d="M1941.81,915.83v25.8h-4.23v-25.8H1941.81z"/>
			<path class="st34" d="M1969.99,915.83v3.45h-6.87v22.35h-4.23v-22.35h-6.9v-3.45H1969.99z"/>
			<path class="st34" d="M1999.31,915.83l-8.54,16.45v9.35h-4.23v-9.35l-8.58-16.45h4.72l5.98,12.66l5.98-12.66H1999.31z"/>
		</g>
	</g>
</g>
</svg>
